<svg id="Layer_3" enable-background="new 0 0 64 64" height="512" viewBox="0 0 64 64" width="512" xmlns="http://www.w3.org/2000/svg"><path d="m27 18h2v7h-2z" fill="#4d5d7a"/><path d="m35 18h2v7h-2z" fill="#4d5d7a"/><path d="m16 2h32v16h-32z" fill="#2d4d83"/><path d="m16 14.195c2.325.513 4.85.805 7.5.805 11.322 0 20.5-5.149 20.5-11.5 0-.51-.079-1.008-.194-1.5h-27.806z" fill="#4472b2"/><path d="m10 53h-6c-1.105 0-2-.895-2-2v-6.958c0-2.358 1.647-4.395 3.952-4.889l10.048-2.153 8.199-10.658c1.135-1.477 2.893-2.342 4.755-2.342h12.091c1.863 0 3.62.865 4.756 2.342l8.199 10.658 8 4v10c0 1.105-.895 2-2 2h-6" fill="#2d4d83"/><path d="m45.801 26.342c-1.135-1.477-2.893-2.342-4.755-2.342h-12.092c-1.863 0-3.62.865-4.756 2.342l-8.198 10.658-10.048 2.153c-2.305.494-3.952 2.531-3.952 4.889v.658c5.014 2.7 11.246 4.3 18 4.3 14.802 0 27.092-7.685 29.546-17.79z" fill="#4472b2"/><path d="m49 38-6.104-8.72c-.562-.802-1.479-1.28-2.458-1.28h-10.876c-.979 0-1.896.478-2.458 1.28l-6.104 8.72z" fill="#c7e2fc"/><path d="m22.73 35.529c1.511.304 3.111.471 4.77.471 6.91 0 12.82-2.835 15.277-6.853-.567-.714-1.42-1.147-2.339-1.147h-10.876c-.979 0-1.896.478-2.458 1.28z" fill="#ebf7fe"/><path d="m2 44.042v2.956l4 .002v-4l-3.878-.002c-.072.339-.122.686-.122 1.044z" fill="#f9d18b"/><path d="m58 49h4v-8l-4-2z" fill="#e47c6e"/><circle cx="17" cy="53" fill="#4d5d7a" r="7"/><circle cx="47" cy="53" fill="#4d5d7a" r="7"/><circle cx="17" cy="53" fill="#8892a0" r="3"/><circle cx="47" cy="53" fill="#8892a0" r="3"/><path d="m2 60h60v2h-60z" fill="#8892a0"/><path d="m34 28h2v10h-2z" fill="#8892a0"/><g fill="#fff"><path d="m32 41h4v2h-4z"/><path d="m46 41h4v2h-4z"/><path d="m22.257 4.999-2.257.001c-.553 0-1 .448-1 1v9h2v-3h1c.552 0 1 .449 1 1v2h2v-2c0-.771-.301-1.468-.78-2 .479-.532.78-1.229.78-2v-2c0-.596-.179-1.076-.531-1.425-.594-.589-1.419-.58-2.212-.576zm-1.257 5.001v-3l1.272-.001c.225-.001.54-.004.728.018v1.983c0 .551-.448 1-1 1z"/><path d="m26 6v8c0 .552.447 1 1 1h4v-2h-3v-2h2v-2h-2v-2h3v-2h-4c-.553 0-1 .448-1 1z"/><path d="m36 9.764-2.105-4.211c-.207-.415-.678-.632-1.124-.526-.452.106-.771.509-.771.973v9h2v-4.764l2.105 4.211c.172.345.523.553.895.553.076 0 .153-.009.229-.027.452-.106.771-.509.771-.973v-9h-2z"/><path d="m39 7h2v8h2v-8h2v-2h-6z"/></g></svg>