<svg height="512" viewBox="0 0 64 64" width="512" xmlns="http://www.w3.org/2000/svg"><path d="m22.85 48.67a5.774 5.774 0 0 0 -3.6-4.08l-4.25-1.59-2 2-2-2-4.26 1.6a5.768 5.768 0 0 0 -3.74 5.4v6h20v-6.01a5.744 5.744 0 0 0 -.15-1.32z" fill="#00ccb3"/><path d="m57.25 44.59-4.25-1.59-2 2-2-2-4.26 1.6a5.755 5.755 0 0 0 -2.71 2.11 5.656 5.656 0 0 0 -1.03 3.29v6h20v-6.01a5.766 5.766 0 0 0 -3.75-5.4z" fill="#ff6243"/><path d="m56 6v10a1 1 0 0 1 -1 1h-6v4l-4-4h-6a1 1 0 0 1 -1-1v-10a1 1 0 0 1 1-1h16a1 1 0 0 1 1 1z" fill="#ffde55"/><path d="m26 6v10a1 1 0 0 1 -1 1h-6l-4 4v-4h-6a1 1 0 0 1 -1-1v-10a1 1 0 0 1 1-1h16a1 1 0 0 1 1 1z" fill="#ffb655"/><path d="m24 15h-2a1 1 0 0 1 -1-1v-9h2v9a1 1 0 0 0 1 1z" fill="#ff9811"/><path d="m43 5v9a1 1 0 0 1 -1 1h-2a1 1 0 0 0 1-1v-9z" fill="#ffcd00"/><path d="m41.58 48.79-.43-.12-2.15-.58v2.91l-7 7-7-7v-2.91l-2.15.58-.43.12a6.013 6.013 0 0 0 -4.42 5.79v6.42h28v-6.42a6.013 6.013 0 0 0 -4.42-5.79z" fill="#5aaae7"/><path d="m36.36 47.37 2.64.72v2.91l-7 7-7-7v-2.91l2.64-.72 4.36 3.63z" fill="#e6e7e8"/><g fill="#ffb655"><path d="m15 39.59v3.41l-2 2-2-2v-3.41a5.083 5.083 0 0 0 4 0z"/><path d="m36.36 47.37-4.36 3.63-4.36-3.63 1.36-.37v-2.58a8.049 8.049 0 0 0 6 0v2.58z"/><path d="m53 39.59v3.41l-2 2-2-2v-3.41a5.083 5.083 0 0 0 4 0z"/></g><path d="m18 33v2a5.029 5.029 0 0 1 -3 4.59 5 5 0 0 1 -5.54-1.05 5.022 5.022 0 0 1 -1.46-3.54v-2h4l3-2 2 2z" fill="#ffc477"/><path d="m56 33v2a5.029 5.029 0 0 1 -3 4.59 5 5 0 0 1 -5.54-1.05 5.022 5.022 0 0 1 -1.46-3.54v-2h4l3-2 2 2z" fill="#ffc477"/><path d="m35 44.42a8 8 0 0 1 -11-7.42v-2h3.69a7.985 7.985 0 0 0 5.65-2.34l1.66-1.66.34.68a5.986 5.986 0 0 0 4.67 3.28l-.01.04v2a8.008 8.008 0 0 1 -5 7.42z" fill="#ffc477"/><path d="m19 31v2h-2l-2-2-3 2h-5v-2a6.009 6.009 0 0 1 6-6 6 6 0 0 1 6 6z" fill="#8b5e3c"/><path d="m57 31v2h-2l-2-2-3 2h-5v-2a6.009 6.009 0 0 1 6-6 6 6 0 0 1 6 6z" fill="#8b5e3c"/><path d="m41 32v3h-.29a5.374 5.374 0 0 1 -.7-.04 5.986 5.986 0 0 1 -4.67-3.28l-.34-.68-1.66 1.66a7.985 7.985 0 0 1 -5.65 2.34h-4.69v-3a9 9 0 0 1 18 0z" fill="#8b5e3c"/><path d="m40 3h-16a1 1 0 0 0 -1 1v10a1 1 0 0 0 1 1h6l2 4 2-4h6a1 1 0 0 0 1-1v-10a1 1 0 0 0 -1-1z" fill="#00ccb3"/><path d="m32 42a4 4 0 0 1 -4-4h2a2 2 0 0 0 4 0h2a4 4 0 0 1 -4 4z" fill="#ffa733"/><path d="m12 8h8v2h-8z" fill="#cc7400"/><path d="m12 12h8v2h-8z" fill="#cc7400"/><path d="m44 8h8v2h-8z" fill="#ebbf00"/><path d="m44 12h8v2h-8z" fill="#ebbf00"/><path d="m27 6h10v2h-10z" fill="#009986"/><path d="m27 10h10v2h-10z" fill="#009986"/></svg>