<?xml version="1.0" encoding="iso-8859-1"?>
<!-- Generator: Adobe Illustrator 19.0.0, SVG Export Plug-In . SVG Version: 6.00 Build 0)  -->
<svg version="1.1" id="Capa_1" xmlns="http://www.w3.org/2000/svg" xmlns:xlink="http://www.w3.org/1999/xlink" x="0px" y="0px"
	 viewBox="0 0 469.17 469.17" style="enable-background:new 0 0 469.17 469.17;" xml:space="preserve">
<path style="fill:#F5F9EC;" d="M434.859,50.791c17.071,4.574,27.202,22.121,22.627,39.192l-95.245,355.461
	c-4.574,17.071-22.121,27.202-39.192,22.627l-185.458-49.694c-17.071-4.574-27.202-22.121-22.627-39.192l95.245-355.46
	c4.574-17.071,22.121-27.202,39.192-22.627L434.859,50.791z"/>
<path style="fill:#E4E8DB;" d="M291.327,97.948H190.319l-75.355,281.238c-4.574,17.07,5.558,34.617,22.629,39.191l185.457,49.691
	c17.07,4.574,34.617-5.554,39.191-22.625l58.45-218.133L291.327,97.948z"/>
<path style="fill:#DCC69F;" d="M434.859,50.791c17.071,4.574,27.202,22.121,22.627,39.192l-41.411,154.548L168.8,178.274
	l41.411-154.548c4.574-17.071,22.121-27.202,39.192-22.627L434.859,50.791z"/>
<g>
	
		<rect x="173.901" y="343.989" transform="matrix(-0.2588 0.9659 -0.9659 -0.2588 629.3947 221.0203)" style="fill:#C8BEB2;" width="111.997" height="16"/>
	
		<rect x="240.821" y="243.558" transform="matrix(-0.2588 0.9659 -0.9659 -0.2588 566.2753 68.5926)" style="fill:#C8BEB2;" width="31.999" height="16"/>
	
		<rect x="287.217" y="255.938" transform="matrix(-0.2588 0.9659 -0.9659 -0.2588 636.636 39.3607)" style="fill:#C8BEB2;" width="31.999" height="16"/>
	
		<rect x="333.54" y="268.381" transform="matrix(-0.2588 0.9659 -0.9659 -0.2588 706.9675 10.2795)" style="fill:#C8BEB2;" width="31.999" height="16"/>
	
		<rect x="220.231" y="356.425" transform="matrix(-0.2588 0.9659 -0.9659 -0.2588 699.7274 191.9228)" style="fill:#C8BEB2;" width="111.997" height="16"/>
	
		<rect x="266.652" y="368.869" transform="matrix(-0.2588 0.9659 -0.9659 -0.2588 770.1833 162.7484)" style="fill:#C8BEB2;" width="111.997" height="16"/>
</g>
<path style="fill:#F5F9EC;" d="M380.21,69.277l-13.247-3.55l-47.315,44.114c-12.4-3.322-26.31-7.05-28.7-7.69
	c-8.831-2.366-18.846-0.317-20.029,4.098c-1.183,4.416,6.465,11.198,15.296,13.564c2.389,0.64,16.3,4.367,28.7,7.69l18.919,61.862
	l13.247,3.55l-1.257-57.129c8.702,2.332,17.583,4.711,23.406,6.271l10.285,18.137l8.831,2.366l-1.518-25.254l13.942-21.111
	l-8.831-2.366l-17.975,10.565c-5.822-1.56-14.703-3.94-23.406-6.271L380.21,69.277z"/>
<polygon style="fill:#CDB994;" points="168.8,178.273 416.078,244.53 420.69,227.312 291.327,97.948 190.323,97.948 "/>
<path style="fill:#E4E8DB;" d="M290.948,102.151c-8.832-2.367-18.848-0.317-20.027,4.098c-1.183,4.416,6.461,11.199,15.297,13.565
	c2.386,0.641,16.297,4.369,28.695,7.69l18.922,61.863l13.246,3.549l-0.879-40.094l-48.996-48.994
	C294.097,102.995,291.788,102.376,290.948,102.151z"/>
<path style="fill:#EA672C;" d="M264.858,5.239l-111.81,417.28l-15.455-4.141c-17.071-4.574-27.202-22.121-22.627-39.192
	l95.246-355.461c4.574-17.071,22.121-27.202,39.192-22.627L264.858,5.239z"/>
<path style="fill:#125D9D;" d="M298.585,406.151c0,17.673-14.327,32-32,32h-240c-8.837,0-16-7.163-16-16v-320
	c0-8.837,7.163-16,16-16h240c17.673,0,32,14.327,32,32V406.151z"/>
<path style="fill:#E7BE29;" d="M154.585,134.151c-53.019,0-96,42.981-96,96s42.981,96,96,96s96-42.981,96-96
	S207.605,134.151,154.585,134.151z M225.632,194.151h-34.598c-3.309-16.58-8.477-29.981-13.754-40.32
	C198.421,160.14,215.777,174.8,225.632,194.151z M178.585,230.151c0,7.142-0.535,13.703-1.27,20h-45.457
	c-0.738-6.297-1.274-12.859-1.274-20c0-7.145,0.527-13.705,1.258-20h45.488C178.058,216.446,178.585,223.007,178.585,230.151z
	 M134.511,194.151c4.442-20.049,11.77-34.614,17.746-43.766c0.789-0.023,1.531-0.234,2.328-0.234c0.805,0,1.55,0.215,2.351,0.238
	c6.004,9.211,13.305,23.782,17.726,43.762H134.511z M131.89,153.831c-5.258,10.317-10.43,23.733-13.742,40.32h-34.61
	C93.394,174.8,110.749,160.144,131.89,153.831z M77.425,210.151h38.293c-0.668,6.336-1.133,12.926-1.133,20
	c0,7.078,0.477,13.66,1.156,20H77.424c-1.672-6.43-2.84-13.054-2.84-20C74.585,223.206,75.753,216.581,77.425,210.151z
	 M83.538,266.151h34.649c3.344,16.617,8.519,30.133,13.68,40.313C110.738,300.151,93.39,285.495,83.538,266.151z M152.257,309.917
	c-5.734-8.82-13.203-23.424-17.726-43.766h40.11c-4.516,20.328-11.977,34.926-17.73,43.766c-0.789,0.023-1.527,0.234-2.324,0.234
	S153.05,309.941,152.257,309.917z M177.312,306.464c5.168-10.19,10.34-23.695,13.676-40.313h34.645
	C215.781,285.494,198.437,300.147,177.312,306.464z M231.746,250.151h-38.313c0.676-6.34,1.152-12.922,1.152-20
	c0-7.074-0.461-13.664-1.129-20h38.289c1.672,6.43,2.84,13.054,2.84,20C234.585,237.097,233.417,243.722,231.746,250.151z"/>
<g style="enable-background:new    ;">
	<path style="fill:#FFFFFF;" d="M69.086,390.168v-22.906h8.641c1.521,0,2.682,0.073,3.484,0.219c1.125,0.188,2.067,0.545,2.828,1.07
		c0.76,0.526,1.372,1.264,1.836,2.211c0.463,0.948,0.695,1.99,0.695,3.125c0,1.948-0.62,3.597-1.859,4.945
		c-1.24,1.35-3.479,2.023-6.719,2.023h-5.875v9.313H69.086z M72.117,378.152h5.922c1.958,0,3.349-0.364,4.172-1.094
		c0.823-0.729,1.234-1.755,1.234-3.078c0-0.958-0.242-1.778-0.727-2.461c-0.484-0.682-1.123-1.133-1.914-1.352
		c-0.511-0.135-1.453-0.203-2.828-0.203h-5.859V378.152z"/>
	<path style="fill:#FFFFFF;" d="M85.539,390.168l8.797-22.906h3.266l9.375,22.906h-3.453l-2.672-6.938h-9.578l-2.516,6.938H85.539z
		 M92.148,380.761h7.766l-2.391-6.344c-0.729-1.927-1.271-3.51-1.625-4.75c-0.292,1.469-0.703,2.928-1.234,4.375L92.148,380.761z"/>
	<path style="fill:#FFFFFF;" d="M108.367,382.808l2.859-0.25c0.135,1.146,0.45,2.086,0.945,2.82
		c0.495,0.734,1.263,1.328,2.305,1.781c1.042,0.453,2.213,0.68,3.516,0.68c1.156,0,2.177-0.172,3.063-0.516
		c0.885-0.344,1.544-0.814,1.977-1.414c0.432-0.599,0.648-1.252,0.648-1.961c0-0.719-0.208-1.346-0.625-1.883
		c-0.417-0.536-1.104-0.986-2.063-1.352c-0.615-0.239-1.974-0.611-4.078-1.117c-2.104-0.505-3.578-0.981-4.422-1.43
		c-1.094-0.572-1.909-1.283-2.445-2.133c-0.537-0.849-0.805-1.799-0.805-2.852c0-1.156,0.328-2.236,0.984-3.242
		c0.656-1.005,1.614-1.768,2.875-2.289c1.26-0.521,2.661-0.781,4.203-0.781c1.698,0,3.195,0.273,4.492,0.82s2.294,1.352,2.992,2.414
		c0.698,1.063,1.073,2.266,1.125,3.609l-2.906,0.219c-0.156-1.447-0.685-2.541-1.586-3.281c-0.901-0.739-2.232-1.109-3.992-1.109
		c-1.833,0-3.169,0.336-4.008,1.008c-0.839,0.672-1.258,1.482-1.258,2.43c0,0.823,0.297,1.5,0.891,2.031
		c0.583,0.531,2.106,1.076,4.57,1.633c2.463,0.558,4.153,1.045,5.07,1.461c1.333,0.615,2.317,1.394,2.953,2.336
		c0.635,0.943,0.953,2.029,0.953,3.258c0,1.219-0.349,2.367-1.047,3.445c-0.698,1.078-1.701,1.917-3.008,2.516
		c-1.308,0.599-2.779,0.898-4.414,0.898c-2.073,0-3.81-0.303-5.211-0.906c-1.401-0.604-2.5-1.513-3.297-2.727
		C108.828,385.712,108.409,384.339,108.367,382.808z"/>
	<path style="fill:#FFFFFF;" d="M129.711,382.808l2.859-0.25c0.135,1.146,0.45,2.086,0.945,2.82
		c0.495,0.734,1.263,1.328,2.305,1.781c1.042,0.453,2.213,0.68,3.516,0.68c1.156,0,2.177-0.172,3.063-0.516
		c0.885-0.344,1.544-0.814,1.977-1.414c0.432-0.599,0.648-1.252,0.648-1.961c0-0.719-0.208-1.346-0.625-1.883
		c-0.417-0.536-1.104-0.986-2.063-1.352c-0.615-0.239-1.974-0.611-4.078-1.117c-2.104-0.505-3.578-0.981-4.422-1.43
		c-1.094-0.572-1.909-1.283-2.445-2.133c-0.537-0.849-0.805-1.799-0.805-2.852c0-1.156,0.328-2.236,0.984-3.242
		c0.656-1.005,1.614-1.768,2.875-2.289c1.26-0.521,2.661-0.781,4.203-0.781c1.698,0,3.195,0.273,4.492,0.82s2.294,1.352,2.992,2.414
		c0.698,1.063,1.073,2.266,1.125,3.609l-2.906,0.219c-0.156-1.447-0.685-2.541-1.586-3.281c-0.901-0.739-2.232-1.109-3.992-1.109
		c-1.833,0-3.169,0.336-4.008,1.008c-0.839,0.672-1.258,1.482-1.258,2.43c0,0.823,0.297,1.5,0.891,2.031
		c0.583,0.531,2.106,1.076,4.57,1.633c2.463,0.558,4.153,1.045,5.07,1.461c1.333,0.615,2.317,1.394,2.953,2.336
		c0.635,0.943,0.953,2.029,0.953,3.258c0,1.219-0.349,2.367-1.047,3.445c-0.698,1.078-1.701,1.917-3.008,2.516
		c-1.308,0.599-2.779,0.898-4.414,0.898c-2.073,0-3.81-0.303-5.211-0.906c-1.401-0.604-2.5-1.513-3.297-2.727
		C130.172,385.712,129.752,384.339,129.711,382.808z"/>
	<path style="fill:#FFFFFF;" d="M152.086,390.168v-22.906h8.641c1.521,0,2.682,0.073,3.484,0.219
		c1.125,0.188,2.067,0.545,2.828,1.07c0.76,0.526,1.372,1.264,1.836,2.211c0.463,0.948,0.695,1.99,0.695,3.125
		c0,1.948-0.62,3.597-1.859,4.945c-1.24,1.35-3.479,2.023-6.719,2.023h-5.875v9.313H152.086z M155.117,378.152h5.922
		c1.958,0,3.349-0.364,4.172-1.094c0.823-0.729,1.234-1.755,1.234-3.078c0-0.958-0.242-1.778-0.727-2.461
		c-0.484-0.682-1.123-1.133-1.914-1.352c-0.511-0.135-1.453-0.203-2.828-0.203h-5.859V378.152z"/>
	<path style="fill:#FFFFFF;" d="M172.508,379.011c0-3.802,1.021-6.778,3.063-8.93c2.042-2.15,4.677-3.227,7.906-3.227
		c2.114,0,4.021,0.506,5.719,1.516c1.698,1.011,2.992,2.42,3.883,4.227c0.891,1.808,1.336,3.857,1.336,6.148
		c0,2.323-0.469,4.401-1.406,6.234c-0.938,1.834-2.266,3.222-3.984,4.164c-1.719,0.943-3.573,1.414-5.563,1.414
		c-2.156,0-4.083-0.521-5.781-1.563c-1.698-1.041-2.984-2.463-3.859-4.266C172.945,382.928,172.508,381.022,172.508,379.011z
		 M175.633,379.058c0,2.761,0.742,4.936,2.227,6.523c1.484,1.589,3.346,2.383,5.586,2.383c2.281,0,4.159-0.802,5.633-2.406
		c1.474-1.604,2.211-3.88,2.211-6.828c0-1.864-0.315-3.492-0.945-4.883c-0.63-1.391-1.552-2.469-2.766-3.234
		c-1.214-0.766-2.576-1.148-4.086-1.148c-2.146,0-3.992,0.737-5.539,2.211C176.406,373.15,175.633,375.611,175.633,379.058z"/>
	<path style="fill:#FFFFFF;" d="M198.367,390.168v-22.906h10.156c2.042,0,3.594,0.206,4.656,0.617
		c1.063,0.412,1.911,1.139,2.547,2.18c0.635,1.042,0.953,2.193,0.953,3.453c0,1.625-0.526,2.995-1.578,4.109
		c-1.052,1.115-2.677,1.823-4.875,2.125c0.802,0.386,1.411,0.766,1.828,1.141c0.885,0.813,1.724,1.828,2.516,3.047l3.984,6.234
		h-3.813l-3.031-4.766c-0.886-1.375-1.615-2.427-2.188-3.156c-0.573-0.729-1.086-1.239-1.539-1.531
		c-0.453-0.291-0.914-0.494-1.383-0.609c-0.344-0.072-0.906-0.109-1.688-0.109h-3.516v10.172H198.367z M201.398,377.371h6.516
		c1.385,0,2.469-0.143,3.25-0.43c0.781-0.286,1.375-0.744,1.781-1.375c0.406-0.63,0.609-1.314,0.609-2.055
		c0-1.083-0.394-1.974-1.18-2.672c-0.787-0.697-2.029-1.047-3.727-1.047h-7.25V377.371z"/>
	<path style="fill:#FFFFFF;" d="M226.68,390.168v-20.203h-7.547v-2.703h18.156v2.703h-7.578v20.203H226.68z"/>
</g>
<g>
</g>
<g>
</g>
<g>
</g>
<g>
</g>
<g>
</g>
<g>
</g>
<g>
</g>
<g>
</g>
<g>
</g>
<g>
</g>
<g>
</g>
<g>
</g>
<g>
</g>
<g>
</g>
<g>
</g>
</svg>
