<svg id="Filled_stroke_cut_Ex" height="512" viewBox="0 0 512 512" width="512" xmlns="http://www.w3.org/2000/svg" data-name="Filled stroke cut Ex"><g><rect fill="#fff2da" height="464" rx="20" width="256" x="128" y="24"/><g><path d="m136 88h-16v-44a28.032 28.032 0 0 1 28-28h216a28.032 28.032 0 0 1 28 28v28h-16v-28a12.013 12.013 0 0 0 -12-12h-216a12.013 12.013 0 0 0 -12 12z"/><path d="m364 496h-216a28.032 28.032 0 0 1 -28-28v-92h16v92a12.013 12.013 0 0 0 12 12h216a12.013 12.013 0 0 0 12-12v-92h16v92a28.032 28.032 0 0 1 -28 28z"/></g><path d="m224 56h64v16h-64z"/></g><g><g><rect fill="#fdbf44" height="240" rx="10" width="464" x="24" y="112"/><path d="m32 160h-16v-38a18.021 18.021 0 0 1 18-18h238v16h-238a2 2 0 0 0 -2 2z"/><path d="m478 360h-444a18.021 18.021 0 0 1 -18-18v-166h16v166a2 2 0 0 0 2 2h444a2 2 0 0 0 2-2v-30h16v30a18.021 18.021 0 0 1 -18 18z"/><path d="m480 216h16v80h-16z"/><path d="m235.568 241.578 19.569-29.4c2.6-6.073-1.76-13.629-8.321-14.412l-29.68 2.91a16.474 16.474 0 0 0 -10.241 2.033l-22.895 13.232-72-16-23.224 15.536 55.224 32.464-40 32-32-8.441-16 7.128 40 41.372z" fill="#fffcf8"/><path d="m96 328a8 8 0 0 1 -5.754-2.439l-40-41.369a8 8 0 0 1 2.495-12.869l16-7.128a8 8 0 0 1 5.3-.428l28.106 7.412 27.786-22.228-45.21-26.577a8 8 0 0 1 -.394-13.546l23.224-15.536a8 8 0 0 1 6.183-1.161l68.959 15.325 20.2-11.676a24.276 24.276 0 0 1 14.249-3.146l28.9-2.833a7.987 7.987 0 0 1 1.728.018 18.7 18.7 0 0 1 14.726 25.507 8.078 8.078 0 0 1 -.693 1.281l-19.568 29.4a8.01 8.01 0 0 1 -2.742 2.543l-139.576 78.425a7.984 7.984 0 0 1 -3.919 1.025zm-26.3-46.713 27.761 28.713 132.513-74.457 17.915-26.919a2.805 2.805 0 0 0 -.405-1.641 2.871 2.871 0 0 0 -1.144-1.137l-28.424 2.787a8.051 8.051 0 0 1 -1.728-.018 8.466 8.466 0 0 0 -5.292 1.018l-22.896 13.234a8 8 0 0 1 -5.739.883l-68.661-15.257-9.786 6.547 44.237 26a8 8 0 0 1 .949 13.148l-40 32a8 8 0 0 1 -7.038 1.488l-29.276-7.72z"/></g><g><g><path d="m484 180.837-24.185 26.586 3.942 35.729-35.212 7.272-17.783 31.25-32.762-14.837-32.763 14.837-17.783-31.25-35.212-7.273 3.943-35.728-24.185-26.586 24.185-26.586-3.942-35.729 35.212-7.272 17.783-31.25 32.762 14.837 32.763-14.837 17.783 31.251 35.212 7.272-3.943 35.729z" fill="#fff"/><path d="m484 180.837-24.185 26.586 3.942 35.729-35.212 7.272-17.783 31.25-32.762-14.837-32.763 14.837-17.783-31.25-35.212-7.273 3.943-35.728-24.185-26.586 24.185-26.586-3.942-35.729 35.212-7.272 17.783-31.25 32.762 14.837 32.763-14.837 17.783 31.251 35.212 7.272-3.943 35.729z" fill="#fa5131"/><path d="m345.241 289.676a8 8 0 0 1 -6.957-4.045l-15.993-28.1-31.667-6.54a8 8 0 0 1 -6.334-8.712l3.548-32.139-21.756-23.914a8 8 0 0 1 0-10.767l21.756-23.915-3.547-32.144a8 8 0 0 1 6.334-8.712l31.667-6.54 15.993-28.1a8 8 0 0 1 10.254-3.331l29.461 13.338 29.462-13.343a8 8 0 0 1 10.254 3.331l15.993 28.1 31.667 6.541a8 8 0 0 1 6.334 8.712l-3.548 32.139 21.756 23.914a8 8 0 0 1 0 10.767l-21.756 23.914 3.547 32.139a8 8 0 0 1 -6.334 8.712l-31.667 6.54-15.993 28.1a8 8 0 0 1 -10.254 3.331l-29.461-13.332-29.463 13.342a7.978 7.978 0 0 1 -3.296.714zm-44.248-52.886 28.079 5.8a8 8 0 0 1 5.335 3.878l14.175 24.91 26.118-11.828a8 8 0 0 1 6.6 0l26.116 11.827 14.175-24.91a8 8 0 0 1 5.335-3.878l28.079-5.8-3.143-28.489a8.007 8.007 0 0 1 2.034-6.261l19.289-21.2-19.289-21.2a8.007 8.007 0 0 1 -2.034-6.261l3.145-28.489-28.079-5.8a8 8 0 0 1 -5.335-3.877l-14.175-24.912-26.118 11.825a8 8 0 0 1 -6.6 0l-26.117-11.825-14.175 24.91a8 8 0 0 1 -5.335 3.878l-28.079 5.8 3.144 28.49a8 8 0 0 1 -2.034 6.26l-19.289 21.2 19.289 21.2a8 8 0 0 1 2.034 6.26z"/></g><path d="m321.149 175.838h113.701v16h-113.701z" transform="matrix(.633 -.774 .774 .633 -3.65 359.972)"/><circle cx="346" cy="148.837" fill="#fffbfa" r="16"/><path d="m346 172.837a24 24 0 1 1 24-24 24.027 24.027 0 0 1 -24 24zm0-32a8 8 0 1 0 8 8 8.009 8.009 0 0 0 -8-8z"/><circle cx="410" cy="212.837" fill="#fffbfa" r="16"/><path d="m410 236.837a24 24 0 1 1 24-24 24.027 24.027 0 0 1 -24 24zm0-32a8 8 0 1 0 8 8 8.009 8.009 0 0 0 -8-8z"/></g><path d="m64 144h16v16h-16z"/><path d="m194.343 181.657-21.656-21.657h-76.687v-16h80a8 8 0 0 1 5.657 2.343l24 24z"/><path d="m448 312h16v16h-16z"/><path d="m416 312h16v16h-16z"/><path d="m384 312h16v16h-16z"/><path d="m280 328h-72v-16h67.719l29.625-44.438 13.312 8.876-32 48a8 8 0 0 1 -6.656 3.562z"/><path d="m208 280h56v16h-56z"/></g><rect fill="#fdbf44" height="48" rx="20" width="144" x="184" y="400"/><path d="m308 456h-104a28.032 28.032 0 0 1 -28-28v-8a28.032 28.032 0 0 1 28-28h104a28.032 28.032 0 0 1 28 28v8a28.032 28.032 0 0 1 -28 28zm-104-48a12.013 12.013 0 0 0 -12 12v8a12.013 12.013 0 0 0 12 12h104a12.013 12.013 0 0 0 12-12v-8a12.013 12.013 0 0 0 -12-12z"/></svg>